<svg width="100%" viewBox="0 0 680 220" xmlns="http://www.w3.org/2000/svg" role="img">
<title>TokenSieve — Context-Deduplicating RAG Proxy</title>
<desc>Animated banner showing token streams being filtered through TokenSieve's semantic compression engine, with redundant file blocks deduplicated and replaced with compact cache references.</desc>

<defs>
  <linearGradient id="bg" x1="0" y1="0" x2="1" y2="0">
    <stop offset="0%" stop-color="#040810"/>
    <stop offset="50%" stop-color="#060d1a"/>
    <stop offset="100%" stop-color="#040810"/>
  </linearGradient>
  <linearGradient id="sieve-glow" x1="0" y1="0" x2="0" y2="1">
    <stop offset="0%" stop-color="#00d4a8" stop-opacity="0.9"/>
    <stop offset="50%" stop-color="#00d4a8" stop-opacity="0.4"/>
    <stop offset="100%" stop-color="#00d4a8" stop-opacity="0.9"/>
  </linearGradient>
  <linearGradient id="title-grad" x1="0" y1="0" x2="1" y2="0">
    <stop offset="0%" stop-color="#00d4a8"/>
    <stop offset="60%" stop-color="#00f0c0"/>
    <stop offset="100%" stop-color="#00d4a8"/>
  </linearGradient>
  <radialGradient id="p-red" cx="50%" cy="50%" r="50%">
    <stop offset="0%" stop-color="#f87171" stop-opacity="1"/>
    <stop offset="100%" stop-color="#ef4444" stop-opacity="0.3"/>
  </radialGradient>
  <radialGradient id="p-amber" cx="50%" cy="50%" r="50%">
    <stop offset="0%" stop-color="#fbbf24" stop-opacity="1"/>
    <stop offset="100%" stop-color="#f59e0b" stop-opacity="0.3"/>
  </radialGradient>
  <radialGradient id="p-teal" cx="50%" cy="50%" r="50%">
    <stop offset="0%" stop-color="#00d4a8" stop-opacity="1"/>
    <stop offset="100%" stop-color="#00d4a8" stop-opacity="0.2"/>
  </radialGradient>
  <radialGradient id="p-blue" cx="50%" cy="50%" r="50%">
    <stop offset="0%" stop-color="#60a5fa" stop-opacity="1"/>
    <stop offset="100%" stop-color="#3b82f6" stop-opacity="0.3"/>
  </radialGradient>
  <clipPath id="clip-left"><rect x="0" y="0" width="225" height="220"/></clipPath>
  <clipPath id="clip-right"><rect x="455" y="0" width="225" height="220"/></clipPath>
  <clipPath id="clip-sieve"><rect x="225" y="0" width="230" height="220"/></clipPath>
</defs>

<!-- Background -->
<rect width="680" height="220" fill="url(#bg)"/>

<!-- Grid overlay -->
<g opacity="0.035" stroke="#00d4a8" stroke-width="0.5">
  <line x1="0" y1="22" x2="680" y2="22"/><line x1="0" y1="44" x2="680" y2="44"/>
  <line x1="0" y1="66" x2="680" y2="66"/><line x1="0" y1="88" x2="680" y2="88"/>
  <line x1="0" y1="110" x2="680" y2="110"/><line x1="0" y1="132" x2="680" y2="132"/>
  <line x1="0" y1="154" x2="680" y2="154"/><line x1="0" y1="176" x2="680" y2="176"/>
  <line x1="0" y1="198" x2="680" y2="198"/>
  <line x1="68" y1="0" x2="68" y2="220"/><line x1="136" y1="0" x2="136" y2="220"/>
  <line x1="204" y1="0" x2="204" y2="220"/><line x1="272" y1="0" x2="272" y2="220"/>
  <line x1="340" y1="0" x2="340" y2="220"/><line x1="408" y1="0" x2="408" y2="220"/>
  <line x1="476" y1="0" x2="476" y2="220"/><line x1="544" y1="0" x2="544" y2="220"/>
  <line x1="612" y1="0" x2="612" y2="220"/>
</g>

<!-- LEFT PANEL: Raw input -->
<g clip-path="url(#clip-left)">
  <rect x="8" y="8" width="72" height="16" rx="3" fill="#1a2540"/>
  <text x="44" y="19" text-anchor="middle" fill="#64748b" font-family="'JetBrains Mono',monospace" font-size="9" font-weight="500">RAW INPUT</text>
  <g opacity="0.7" font-family="'JetBrains Mono','Fira Code',monospace" font-size="9.5">
    <g>
      <animateTransform attributeName="transform" type="translate" values="0,0;0,-40;0,-40" keyTimes="0;0.45;1" dur="4s" repeatCount="indefinite" calcMode="linear"/>
      <text x="12" y="42" fill="#ef4444" opacity="0.9">--- BEGIN FILE src/main.go</text>
      <text x="12" y="55" fill="#475569">package main</text>
      <text x="12" y="68" fill="#475569">import (</text>
      <text x="12" y="81" fill="#60a5fa">  "net/http"</text>
      <text x="12" y="94" fill="#60a5fa">  "encoding/json"</text>
      <text x="12" y="107" fill="#475569">)</text>
      <text x="12" y="120" fill="#ef4444" opacity="0.9">--- END FILE</text>
      <text x="12" y="133" fill="#fbbf24" opacity="0.8">Error: exit status 1</text>
      <text x="12" y="146" fill="#64748b">goroutine 1 [running]:</text>
      <text x="12" y="159" fill="#64748b">main.main()</text>
      <text x="12" y="172" fill="#ef4444" opacity="0.9">--- BEGIN FILE src/main.go</text>
      <text x="12" y="185" fill="#475569">package main</text>
      <text x="12" y="198" fill="#475569">import (</text>
      <text x="12" y="211" fill="#60a5fa">  "net/http"</text>
    </g>
    <g>
      <animateTransform attributeName="transform" type="translate" values="0,160;0,120;0,80" keyTimes="0;0.5;1" dur="4s" repeatCount="indefinite" calcMode="linear"/>
      <text x="12" y="42" fill="#ef4444" opacity="0.9">--- BEGIN FILE src/main.go</text>
      <text x="12" y="55" fill="#475569">package main</text>
      <text x="12" y="68" fill="#475569">import (</text>
      <text x="12" y="81" fill="#60a5fa">  "net/http"</text>
      <text x="12" y="94" fill="#60a5fa">  "encoding/json"</text>
    </g>
  </g>
  <rect x="0" y="0" width="225" height="28" fill="url(#bg)"/>
  <rect x="0" y="192" width="225" height="28" fill="url(#bg)"/>
  <g opacity="0.0">
    <animate attributeName="opacity" values="0;0;0.9;0.9;0" keyTimes="0;0.2;0.35;0.65;1" dur="4s" repeatCount="indefinite"/>
    <rect x="140" y="36" width="60" height="14" rx="3" fill="#7f1d1d"/>
    <text x="170" y="46" text-anchor="middle" fill="#fca5a5" font-family="'JetBrains Mono',monospace" font-size="8" font-weight="700">DUPLICATE</text>
    <rect x="140" y="166" width="60" height="14" rx="3" fill="#7f1d1d"/>
    <text x="170" y="176" text-anchor="middle" fill="#fca5a5" font-family="'JetBrains Mono',monospace" font-size="8" font-weight="700">DUPLICATE</text>
  </g>
  <rect x="8" y="196" width="92" height="16" rx="3" fill="#1a1030"/>
  <text x="12" y="207" fill="#ef4444" font-family="'JetBrains Mono',monospace" font-size="9">~12,400 tokens</text>
  <g opacity="0.7">
    <line x1="210" y1="110" x2="222" y2="110" stroke="#ef4444" stroke-width="1.5"/>
    <polygon points="222,106 228,110 222,114" fill="#ef4444"/>
    <animate attributeName="opacity" values="0.5;1;0.5" dur="1.4s" repeatCount="indefinite"/>
  </g>
</g>

<!-- CENTER: Sieve engine -->
<g clip-path="url(#clip-sieve)">
  <rect x="230" y="20" width="220" height="180" rx="12" fill="#060f1e" stroke="#00d4a8" stroke-width="1.2" stroke-opacity="0.6"/>
  <g stroke="#00d4a8" stroke-width="0.5" stroke-opacity="0.25">
    <line x1="250" y1="20" x2="250" y2="200"/><line x1="270" y1="20" x2="270" y2="200"/>
    <line x1="290" y1="20" x2="290" y2="200"/><line x1="310" y1="20" x2="310" y2="200"/>
    <line x1="330" y1="20" x2="330" y2="200"/><line x1="350" y1="20" x2="350" y2="200"/>
    <line x1="370" y1="20" x2="370" y2="200"/><line x1="390" y1="20" x2="390" y2="200"/>
    <line x1="410" y1="20" x2="410" y2="200"/><line x1="430" y1="20" x2="430" y2="200"/>
    <line x1="230" y1="40" x2="450" y2="40"/><line x1="230" y1="60" x2="450" y2="60"/>
    <line x1="230" y1="80" x2="450" y2="80"/><line x1="230" y1="100" x2="450" y2="100"/>
    <line x1="230" y1="120" x2="450" y2="120"/><line x1="230" y1="140" x2="450" y2="140"/>
    <line x1="230" y1="160" x2="450" y2="160"/><line x1="230" y1="180" x2="450" y2="180"/>
  </g>
  <rect x="230" y="20" width="220" height="180" rx="12" fill="none" stroke="url(#sieve-glow)" stroke-width="1.5" stroke-opacity="0.0">
    <animate attributeName="stroke-opacity" values="0;0.7;0" dur="2.5s" repeatCount="indefinite"/>
  </rect>
  <g transform="translate(340,90)">
    <path d="M0,-24 L18,-14 L18,4 Q18,18 0,26 Q-18,18 -18,4 L-18,-14 Z" fill="#00d4a8" opacity="0.12" stroke="#00d4a8" stroke-width="1" stroke-opacity="0.5"/>
    <polyline points="-7,0 -2,6 9,-8" fill="none" stroke="#00d4a8" stroke-width="2" stroke-linecap="round" stroke-linejoin="round" opacity="0.8"/>
  </g>
  <text x="340" y="148" text-anchor="middle" fill="url(#title-grad)" font-family="'JetBrains Mono','Fira Code',monospace" font-size="21" font-weight="700" letter-spacing="-0.5">TokenSieve</text>
  <text x="340" y="163" text-anchor="middle" fill="#4b6a6a" font-family="'JetBrains Mono',monospace" font-size="8.5" letter-spacing="0.5">CONTEXT DEDUPLICATION PROXY</text>
  <rect x="308" y="170" width="64" height="14" rx="3" fill="#001a14" stroke="#00d4a8" stroke-width="0.8" stroke-opacity="0.4"/>
  <text x="340" y="180" text-anchor="middle" fill="#00d4a8" font-family="'JetBrains Mono',monospace" font-size="8" opacity="0.8">v1.0.0 · MIT</text>

  <!-- Animated particles -->
  <circle r="3.5" fill="url(#p-red)" opacity="0.9">
    <animate attributeName="cx" values="225;453" dur="1.8s" repeatCount="indefinite" calcMode="linear"/>
    <animate attributeName="cy" values="55;55" dur="1.8s" repeatCount="indefinite"/>
    <animate attributeName="opacity" values="0;0.9;0.9;0" keyTimes="0;0.05;0.9;1" dur="1.8s" repeatCount="indefinite"/>
    <animate attributeName="r" values="3.5;2;1.5" keyTimes="0;0.5;1" dur="1.8s" repeatCount="indefinite"/>
  </circle>
  <circle r="3" fill="url(#p-amber)" opacity="0.8">
    <animate attributeName="cx" values="225;453" dur="2.4s" begin="0.3s" repeatCount="indefinite" calcMode="linear"/>
    <animate attributeName="cy" values="75;75" dur="2.4s" repeatCount="indefinite"/>
    <animate attributeName="opacity" values="0;0.8;0.8;0" keyTimes="0;0.05;0.9;1" dur="2.4s" begin="0.3s" repeatCount="indefinite"/>
  </circle>
  <circle r="4" fill="url(#p-red)" opacity="0.8">
    <animate attributeName="cx" values="225;340;340" dur="2.1s" begin="0.7s" repeatCount="indefinite" calcMode="linear" keyTimes="0;0.5;1"/>
    <animate attributeName="cy" values="95;95;95" dur="2.1s" repeatCount="indefinite"/>
    <animate attributeName="opacity" values="0;0.9;0.9;0" keyTimes="0;0.1;0.5;0.7" dur="2.1s" begin="0.7s" repeatCount="indefinite"/>
    <animate attributeName="r" values="4;4;0" keyTimes="0;0.45;0.65" dur="2.1s" begin="0.7s" repeatCount="indefinite"/>
  </circle>
  <circle cx="340" cy="95" r="0" fill="#00d4a8" opacity="0">
    <animate attributeName="r" values="0;12;0" keyTimes="0;0.5;1" dur="2.1s" begin="1.75s" repeatCount="indefinite"/>
    <animate attributeName="opacity" values="0;0.35;0" keyTimes="0;0.5;1" dur="2.1s" begin="1.75s" repeatCount="indefinite"/>
  </circle>
  <circle r="2.5" fill="url(#p-teal)" opacity="0.9">
    <animate attributeName="cx" values="225;453" dur="2.0s" begin="1.1s" repeatCount="indefinite" calcMode="linear"/>
    <animate attributeName="cy" values="115;115" dur="2.0s" repeatCount="indefinite"/>
    <animate attributeName="opacity" values="0;0.9;0.9;0" keyTimes="0;0.05;0.9;1" dur="2.0s" begin="1.1s" repeatCount="indefinite"/>
  </circle>
  <circle r="3" fill="url(#p-amber)" opacity="0.7">
    <animate attributeName="cx" values="225;453" dur="2.6s" begin="0.5s" repeatCount="indefinite" calcMode="linear"/>
    <animate attributeName="cy" values="135;135" dur="2.6s" repeatCount="indefinite"/>
    <animate attributeName="opacity" values="0;0.7;0.7;0" keyTimes="0;0.05;0.9;1" dur="2.6s" begin="0.5s" repeatCount="indefinite"/>
  </circle>
  <circle r="2" fill="url(#p-blue)" opacity="0.8">
    <animate attributeName="cx" values="225;453" dur="1.6s" begin="1.4s" repeatCount="indefinite" calcMode="linear"/>
    <animate attributeName="cy" values="155;155" dur="1.6s" repeatCount="indefinite"/>
    <animate attributeName="opacity" values="0;0.8;0.8;0" keyTimes="0;0.05;0.9;1" dur="1.6s" begin="1.4s" repeatCount="indefinite"/>
  </circle>

  <!-- Scrolling SHA hashes (decorative) -->
  <g font-family="'JetBrains Mono',monospace" font-size="7.5" fill="#00d4a8" opacity="0.2" text-anchor="middle">
    <g>
      <animateTransform attributeName="transform" type="translate" values="0,0;0,-140" dur="6s" repeatCount="indefinite" calcMode="linear"/>
      <text x="340" y="28">a3f8c21b4d77e902</text>
      <text x="340" y="42">f2a70b5e1c883d41</text>
      <text x="340" y="56">d9e14c773b220f88</text>
      <text x="340" y="70">7c4a918e5f003b62</text>
      <text x="340" y="84">e1b2334f8d90ac71</text>
      <text x="340" y="98">2df456a0b7c1e834</text>
      <text x="340" y="112">9a8321fc0d54e276</text>
      <text x="340" y="126">b5cc70e1392fa841</text>
      <text x="340" y="140">a3f8c21b4d77e902</text>
      <text x="340" y="154">f2a70b5e1c883d41</text>
      <text x="340" y="168">d9e14c773b220f88</text>
      <text x="340" y="182">7c4a918e5f003b62</text>
      <text x="340" y="196">e1b2334f8d90ac71</text>
    </g>
  </g>
</g>

<!-- RIGHT PANEL: Compressed output -->
<g clip-path="url(#clip-right)">
  <rect x="600" y="8" width="72" height="16" rx="3" fill="#001a14"/>
  <text x="636" y="19" text-anchor="middle" fill="#00d4a8" font-family="'JetBrains Mono',monospace" font-size="9" font-weight="500">COMPRESSED</text>
  <g opacity="0.85" font-family="'JetBrains Mono','Fira Code',monospace" font-size="9">
    <g>
      <animateTransform attributeName="transform" type="translate" values="0,0;0,-30;0,-30" keyTimes="0;0.5;1" dur="5s" repeatCount="indefinite" calcMode="linear"/>
      <text x="460" y="42" fill="#00d4a8" opacity="0.9">[TS:FILE_CACHE</text>
      <text x="460" y="55" fill="#00d4a8" opacity="0.7">  ref=a3f8c21b</text>
      <text x="460" y="68" fill="#4b9e8a" opacity="0.7">  saved≈3100tok]</text>
      <text x="460" y="86" fill="#00d4a8" opacity="0.9">[TS:TRACE_CACHE</text>
      <text x="460" y="99" fill="#00d4a8" opacity="0.7">  ref=f2a70b5e</text>
      <text x="460" y="112" fill="#4b9e8a" opacity="0.7">  saved≈820tok]</text>
      <text x="460" y="130" fill="#00d4a8" opacity="0.9">[TS:SYS_CACHE</text>
      <text x="460" y="143" fill="#00d4a8" opacity="0.7">  ref=d9e14c77</text>
      <text x="460" y="156" fill="#4b9e8a" opacity="0.7">  saved≈1640tok]</text>
      <text x="460" y="174" fill="#00d4a8" opacity="0.9">[TS:FILE_CACHE</text>
      <text x="460" y="187" fill="#00d4a8" opacity="0.7">  ref=a3f8c21b</text>
      <text x="460" y="200" fill="#4b9e8a" opacity="0.7">  saved≈3100tok]</text>
    </g>
  </g>
  <rect x="455" y="0" width="225" height="28" fill="url(#bg)"/>
  <rect x="455" y="192" width="225" height="28" fill="url(#bg)"/>
  <rect x="460" y="196" width="100" height="16" rx="3" fill="#001a14" stroke="#00d4a8" stroke-width="0.8" stroke-opacity="0.4"/>
  <text x="510" y="207" text-anchor="middle" fill="#00d4a8" font-family="'JetBrains Mono',monospace" font-size="8.5" opacity="0.9">~3,200 tokens ✓</text>
  <g opacity="0.7">
    <line x1="452" y1="110" x2="463" y2="110" stroke="#00d4a8" stroke-width="1.5"/>
    <polygon points="463,106 469,110 463,114" fill="#00d4a8"/>
    <animate attributeName="opacity" values="0.5;1;0.5" dur="1.4s" begin="0.7s" repeatCount="indefinite"/>
  </g>
</g>

<!-- Divider lines -->
<line x1="228" y1="18" x2="228" y2="202" stroke="#00d4a8" stroke-width="1" stroke-opacity="0.4"/>
<line x1="452" y1="18" x2="452" y2="202" stroke="#00d4a8" stroke-width="1" stroke-opacity="0.4"/>

<!-- Bottom glow line -->
<line x1="0" y1="219" x2="680" y2="219" stroke="#00d4a8" stroke-width="1" stroke-opacity="0.2"/>
<line x1="0" y1="219" x2="680" y2="219" stroke="#00d4a8" stroke-width="1" stroke-opacity="0">
  <animate attributeName="stroke-opacity" values="0;0.5;0" dur="3s" repeatCount="indefinite"/>
</line>

</svg>
